<svg width="1500" height="500" viewBox="0 0 1500 500" fill="none" xmlns="http://www.w3.org/2000/svg">
<path d="M300.667 289.394C300.667 282.7 306.094 277.273 312.788 277.273H361.273C367.967 277.273 373.394 282.7 373.394 289.394V337.879C373.394 344.573 367.967 350 361.273 350H312.788C306.094 350 300.667 344.573 300.667 337.879V289.394Z" fill="url(#paint0_linear_1_20)"/>
<path d="M234 225.758C234 219.063 239.427 213.636 246.121 213.636H294.606C301.3 213.636 306.727 219.063 306.727 225.758V274.242C306.727 280.937 301.3 286.364 294.606 286.364H246.121C239.427 286.364 234 280.937 234 274.242V225.758Z" fill="url(#paint1_linear_1_20)"/>
<path d="M300.667 162.121C300.667 155.427 306.094 150 312.788 150H421.879C428.573 150 434 155.427 434 162.121V210.606C434 217.3 428.573 222.727 421.879 222.727H312.788C306.094 222.727 300.667 217.3 300.667 210.606V162.121Z" fill="url(#paint2_linear_1_20)"/>
<path d="M535.438 296.562C528.312 296.562 522.083 295.521 516.75 293.438C511.458 291.312 507.292 288.292 504.25 284.375C501.208 280.417 499.5 275.667 499.125 270.125L499.062 269.125H516.875L517 269.812C517.417 272.146 518.458 274.167 520.125 275.875C521.833 277.542 524.042 278.854 526.75 279.812C529.458 280.729 532.521 281.188 535.938 281.188C539.438 281.188 542.438 280.729 544.938 279.812C547.479 278.854 549.438 277.521 550.812 275.812C552.229 274.062 552.938 272.042 552.938 269.75V269.688C552.938 266.646 551.729 264.271 549.312 262.562C546.938 260.812 542.938 259.354 537.312 258.188L527.812 256.312C518.938 254.521 512.25 251.5 507.75 247.25C503.25 243 501 237.479 501 230.688V230.625C501 225.125 502.479 220.333 505.438 216.25C508.396 212.125 512.458 208.938 517.625 206.688C522.792 204.396 528.708 203.25 535.375 203.25C542.333 203.25 548.333 204.333 553.375 206.5C558.458 208.667 562.417 211.729 565.25 215.688C568.083 219.646 569.646 224.25 569.938 229.5L570 230.688H552.188L552.125 229.938C551.792 227.562 550.896 225.542 549.438 223.875C547.979 222.167 546.042 220.854 543.625 219.938C541.25 219.021 538.5 218.562 535.375 218.562C532.167 218.562 529.396 219.042 527.062 220C524.729 220.917 522.938 222.188 521.688 223.812C520.479 225.438 519.875 227.333 519.875 229.5V229.562C519.875 232.396 521.083 234.688 523.5 236.438C525.917 238.188 529.708 239.583 534.875 240.625L544.438 242.562C550.729 243.812 555.896 245.542 559.938 247.75C563.979 249.958 566.958 252.75 568.875 256.125C570.833 259.458 571.812 263.479 571.812 268.188V268.25C571.812 274.042 570.354 279.062 567.438 283.312C564.562 287.521 560.396 290.792 554.938 293.125C549.521 295.417 543.021 296.562 535.438 296.562ZM608.438 296.375C601.021 296.375 595.521 294.812 591.938 291.688C588.354 288.562 586.562 283.417 586.562 276.25V241.75H577.25V228H586.562V211.625H605V228H617.25V241.75H605V274.25C605 277.375 605.688 279.562 607.062 280.812C608.479 282.021 610.562 282.625 613.312 282.625C614.146 282.625 614.875 282.604 615.5 282.562C616.125 282.479 616.708 282.396 617.25 282.312V295.688C616.25 295.854 615 296 613.5 296.125C612.042 296.292 610.354 296.375 608.438 296.375ZM627.312 295V228H645.562V239.688H645.938C646.938 235.562 648.75 232.354 651.375 230.062C654 227.771 657.271 226.625 661.188 226.625C662.188 226.625 663.146 226.688 664.062 226.812C664.979 226.938 665.771 227.104 666.438 227.312V243.375C665.688 243.083 664.729 242.854 663.562 242.688C662.396 242.479 661.146 242.375 659.812 242.375C656.812 242.375 654.25 242.958 652.125 244.125C650 245.292 648.375 247 647.25 249.25C646.125 251.5 645.562 254.25 645.562 257.5V295H627.312ZM702.312 296.375C695.479 296.375 689.604 294.979 684.688 292.188C679.771 289.354 675.979 285.333 673.312 280.125C670.688 274.917 669.375 268.75 669.375 261.625V261.562C669.375 254.438 670.688 248.271 673.312 243.062C675.979 237.812 679.708 233.771 684.5 230.938C689.333 228.062 695.021 226.625 701.562 226.625C708.104 226.625 713.75 228.021 718.5 230.812C723.292 233.562 726.979 237.458 729.562 242.5C732.188 247.542 733.5 253.438 733.5 260.188V265.812H678.312V254.312H724.875L716.188 265.062V258.062C716.188 254.146 715.583 250.875 714.375 248.25C713.167 245.583 711.479 243.583 709.312 242.25C707.188 240.917 704.708 240.25 701.875 240.25C699.042 240.25 696.521 240.938 694.312 242.312C692.146 243.688 690.438 245.708 689.188 248.375C687.979 251 687.375 254.229 687.375 258.062V265.125C687.375 268.833 687.979 272 689.188 274.625C690.438 277.25 692.208 279.271 694.5 280.688C696.792 282.062 699.521 282.75 702.688 282.75C705.188 282.75 707.354 282.354 709.188 281.562C711.021 280.771 712.521 279.771 713.688 278.562C714.854 277.354 715.646 276.125 716.062 274.875L716.188 274.5H732.938L732.75 275.188C732.25 277.646 731.271 280.125 729.812 282.625C728.354 285.125 726.375 287.417 723.875 289.5C721.417 291.583 718.396 293.25 714.812 294.5C711.271 295.75 707.104 296.375 702.312 296.375ZM762.875 296.062C758.417 296.062 754.5 295.208 751.125 293.5C747.75 291.75 745.104 289.354 743.188 286.312C741.312 283.229 740.375 279.729 740.375 275.812V275.688C740.375 271.604 741.396 268.125 743.438 265.25C745.479 262.333 748.438 260.042 752.312 258.375C756.188 256.708 760.896 255.688 766.438 255.312L792.562 253.688V265.062L769.188 266.562C765.688 266.771 763.021 267.604 761.188 269.062C759.354 270.479 758.438 272.375 758.438 274.75V274.875C758.438 277.333 759.375 279.271 761.25 280.688C763.125 282.062 765.646 282.75 768.812 282.75C771.521 282.75 773.938 282.229 776.062 281.188C778.229 280.104 779.917 278.646 781.125 276.812C782.375 274.938 783 272.833 783 270.5V250.188C783 247.229 782.062 244.896 780.188 243.188C778.312 241.438 775.583 240.562 772 240.562C768.583 240.562 765.875 241.271 763.875 242.688C761.875 244.104 760.646 245.896 760.188 248.062L760.062 248.625H743.375L743.438 247.875C743.771 243.75 745.125 240.083 747.5 236.875C749.917 233.667 753.25 231.167 757.5 229.375C761.792 227.542 766.875 226.625 772.75 226.625C778.542 226.625 783.562 227.562 787.812 229.438C792.062 231.271 795.354 233.875 797.688 237.25C800.062 240.625 801.25 244.562 801.25 249.062V295H783V285H782.625C781.375 287.292 779.75 289.271 777.75 290.938C775.792 292.562 773.562 293.833 771.062 294.75C768.562 295.625 765.833 296.062 762.875 296.062ZM813.062 295V228H831.312V239.25H831.688C833.062 235.417 835.396 232.354 838.688 230.062C842.021 227.771 845.938 226.625 850.438 226.625C853.562 226.625 856.375 227.167 858.875 228.25C861.375 229.333 863.479 230.896 865.188 232.938C866.938 234.979 868.167 237.479 868.875 240.438H869.25C870.25 237.604 871.75 235.167 873.75 233.125C875.792 231.042 878.188 229.438 880.938 228.312C883.729 227.188 886.771 226.625 890.062 226.625C894.438 226.625 898.271 227.562 901.562 229.438C904.854 231.312 907.417 233.938 909.25 237.312C911.083 240.688 912 244.646 912 249.188V295H893.75V253.75C893.75 251.167 893.312 248.979 892.438 247.188C891.604 245.396 890.375 244.042 888.75 243.125C887.167 242.208 885.188 241.75 882.812 241.75C880.521 241.75 878.5 242.271 876.75 243.312C875.042 244.354 873.708 245.812 872.75 247.688C871.792 249.562 871.312 251.75 871.312 254.25V295H853.75V253.188C853.75 250.771 853.312 248.708 852.438 247C851.562 245.292 850.312 244 848.688 243.125C847.104 242.208 845.188 241.75 842.938 241.75C840.646 241.75 838.625 242.292 836.875 243.375C835.125 244.458 833.75 245.958 832.75 247.875C831.792 249.792 831.312 252.021 831.312 254.562V295H813.062ZM942.062 295L911.875 204.812H932.75L953.375 275.688H953.75L974.312 204.812H995.25L965.062 295H942.062ZM1014.12 296.062C1009.67 296.062 1005.75 295.208 1002.38 293.5C999 291.75 996.354 289.354 994.438 286.312C992.562 283.229 991.625 279.729 991.625 275.812V275.688C991.625 271.604 992.646 268.125 994.688 265.25C996.729 262.333 999.688 260.042 1003.56 258.375C1007.44 256.708 1012.15 255.688 1017.69 255.312L1043.81 253.688V265.062L1020.44 266.562C1016.94 266.771 1014.27 267.604 1012.44 269.062C1010.6 270.479 1009.69 272.375 1009.69 274.75V274.875C1009.69 277.333 1010.62 279.271 1012.5 280.688C1014.38 282.062 1016.9 282.75 1020.06 282.75C1022.77 282.75 1025.19 282.229 1027.31 281.188C1029.48 280.104 1031.17 278.646 1032.38 276.812C1033.62 274.938 1034.25 272.833 1034.25 270.5V250.188C1034.25 247.229 1033.31 244.896 1031.44 243.188C1029.56 241.438 1026.83 240.562 1023.25 240.562C1019.83 240.562 1017.12 241.271 1015.12 242.688C1013.12 244.104 1011.9 245.896 1011.44 248.062L1011.31 248.625H994.625L994.688 247.875C995.021 243.75 996.375 240.083 998.75 236.875C1001.17 233.667 1004.5 231.167 1008.75 229.375C1013.04 227.542 1018.12 226.625 1024 226.625C1029.79 226.625 1034.81 227.562 1039.06 229.438C1043.31 231.271 1046.6 233.875 1048.94 237.25C1051.31 240.625 1052.5 244.562 1052.5 249.062V295H1034.25V285H1033.88C1032.62 287.292 1031 289.271 1029 290.938C1027.04 292.562 1024.81 293.833 1022.31 294.75C1019.81 295.625 1017.08 296.062 1014.12 296.062ZM1087.12 296.375C1082.21 296.375 1078.02 295.375 1074.56 293.375C1071.15 291.333 1068.52 288.438 1066.69 284.688C1064.9 280.938 1064 276.458 1064 271.25V228H1082.25V267.438C1082.25 271.812 1083.27 275.208 1085.31 277.625C1087.4 280.042 1090.48 281.25 1094.56 281.25C1096.6 281.25 1098.44 280.896 1100.06 280.188C1101.73 279.479 1103.15 278.479 1104.31 277.188C1105.48 275.854 1106.38 274.292 1107 272.5C1107.62 270.667 1107.94 268.667 1107.94 266.5V228H1126.19V295H1107.94V283.938H1107.56C1106.4 286.479 1104.85 288.688 1102.94 290.562C1101.06 292.438 1098.79 293.875 1096.12 294.875C1093.5 295.875 1090.5 296.375 1087.12 296.375ZM1138.5 295V204.812H1156.75V295H1138.5ZM1195.69 296.375C1188.27 296.375 1182.77 294.812 1179.19 291.688C1175.6 288.562 1173.81 283.417 1173.81 276.25V241.75H1164.5V228H1173.81V211.625H1192.25V228H1204.5V241.75H1192.25V274.25C1192.25 277.375 1192.94 279.562 1194.31 280.812C1195.73 282.021 1197.81 282.625 1200.56 282.625C1201.4 282.625 1202.12 282.604 1202.75 282.562C1203.38 282.479 1203.96 282.396 1204.5 282.312V295.688C1203.5 295.854 1202.25 296 1200.75 296.125C1199.29 296.292 1197.6 296.375 1195.69 296.375Z" fill="black"/>
<defs>
<linearGradient id="paint0_linear_1_20" x1="434.231" y1="150" x2="254.713" y2="367.749" gradientUnits="userSpaceOnUse">
<stop offset="0.2" stop-color="#1DA1F2"/>
<stop offset="0.5" stop-color="#00E701"/>
<stop offset="0.8" stop-color="#8956FB"/>
</linearGradient>
<linearGradient id="paint1_linear_1_20" x1="434.231" y1="150" x2="254.713" y2="367.749" gradientUnits="userSpaceOnUse">
<stop offset="0.2" stop-color="#1DA1F2"/>
<stop offset="0.5" stop-color="#00E701"/>
<stop offset="0.8" stop-color="#8956FB"/>
</linearGradient>
<linearGradient id="paint2_linear_1_20" x1="434.231" y1="150" x2="254.713" y2="367.749" gradientUnits="userSpaceOnUse">
<stop offset="0.2" stop-color="#1DA1F2"/>
<stop offset="0.5" stop-color="#00E701"/>
<stop offset="0.8" stop-color="#8956FB"/>
</linearGradient>
</defs>
</svg>
